<svg xmlns="http://www.w3.org/2000/svg" width="281" height="196.872" viewBox="0 0 281 196.872">
  <g id="Grupo_139" data-name="Grupo 139" transform="translate(0 0.077)">
    <path id="Caminho_260" data-name="Caminho 260" d="M128.951,130.771a1.565,1.565,0,0,1,.991,1.392c0-.053-.05.058-.139.335s-.331.89-.724,1.837-.993,2.277-1.793,3.984-1.918,3.938-3.351,6.69a87.31,87.31,0,0,1-5.814,9.787q-2.225,3.039-3.9,3.155a4.144,4.144,0,0,0-.673.129c-.289.073-.606-.066-.951-.421a6.066,6.066,0,0,1-1.063-2.038,29.583,29.583,0,0,1-1.1-4.8q-.255-1.363-.47-3.3t-.451-4.151q-.236-2.217-.478-4.555t-.476-4.515q-1.206,3.738-3.092,8.256-1.811,4.433-3.343,7.584a55.331,55.331,0,0,1-2.817,5.191,13.086,13.086,0,0,1-2.439,3.013,3.929,3.929,0,0,1-2.209,1.048,3.151,3.151,0,0,1-2.571-1.2,12.011,12.011,0,0,1-2.123-3.547,29,29,0,0,1-1.548-5.253,48.486,48.486,0,0,1-.855-6.4q-.164-2.343-.086-5.314a20.669,20.669,0,0,1,.941-5.71q1.131-3.57,2.992-4.839a7.205,7.205,0,0,1,3.478-1.38,7.92,7.92,0,0,1,5.913,2.1,15.963,15.963,0,0,1,4.267,6.443,19.455,19.455,0,0,1,3.79-7.371q2.265-2.472,3.881-2.585t1.746,1.746q.006.081-.021,2.032t.021,4.953q.047,3,.137,6.609t.321,6.922q.27,3.881.7,6.53.441-.68,1.129-1.865t1.482-2.622q.792-1.436,1.581-2.953t1.5-2.866q2.362-4.551,3.492-6.985t1.659-3.568a4.776,4.776,0,0,1,.8-1.355,1.641,1.641,0,0,1,.915-.267A2.581,2.581,0,0,1,128.951,130.771ZM96.271,153.6q.564-.04,1.5-1.729a42.807,42.807,0,0,0,1.915-3.992q.976-2.3,1.947-4.684t1.516-3.883a14.507,14.507,0,0,0-.78-3.032,18.819,18.819,0,0,0-1.479-3.145,10.359,10.359,0,0,0-1.916-2.425,2.762,2.762,0,0,0-2.01-.875,1.94,1.94,0,0,0-1.361.867,7.145,7.145,0,0,0-1.077,2.593,25.87,25.87,0,0,0-.614,4.591,54.114,54.114,0,0,0,.113,6.855q.119,1.7.312,3.308a26.017,26.017,0,0,0,.484,2.85,8.9,8.9,0,0,0,.666,1.984Q95.865,153.629,96.271,153.6Z" fill="#db0038"/>
    <path id="Caminho_261" data-name="Caminho 261" d="M146.771,131.52a1.51,1.51,0,0,1,.882,1.384c0-.053-.056.068-.165.363s-.386.9-.824,1.817-1.124,2.194-2.054,3.834-2.243,3.779-3.936,6.412q-.655.968-1.886,3.025t-2.744,4.112a23.271,23.271,0,0,1-3.227,3.582,4.923,4.923,0,0,1-3.171,1.516,1.923,1.923,0,0,1-1.693-1.187,11.284,11.284,0,0,1-1.03-3.127,32.58,32.58,0,0,1-.534-4.582q-.143-2.633-.121-5.551.026-3.483.214-7.048t.414-6.722q.225-3.158.446-5.546t.228-3.443q-.891-.006-2.553.022a31.97,31.97,0,0,1-3.24-.1,11.311,11.311,0,0,1-2.751-.537q-1.17-.4-1.165-1.354a1.419,1.419,0,0,1,.535-1.144,1.8,1.8,0,0,1,1.178-.427q2.352.017,4.334.194t3.847.19a50.667,50.667,0,0,0,.49-6.021q.062-3.012.323-5.372a10.048,10.048,0,0,1,1.081-3.818,2.816,2.816,0,0,1,2.685-1.446,2.253,2.253,0,0,1,1.938.787,4.445,4.445,0,0,1,.549,2.569q-.021,2.933-.29,6.391t-.292,6.634q3.08-.221,4.743-.452t2.393-.387a2.354,2.354,0,0,0,.853-.277.33.33,0,0,1,.2-.121,1.7,1.7,0,0,1,1.171.495,1.5,1.5,0,0,1,.518,1.131,1.222,1.222,0,0,1-1.143,1.256q-.165.078-2.4.655a42.19,42.19,0,0,1-6.529.939q-.195,4.294-.631,8.706t-.833,8.5q-.393,4.089-.7,7.652t-.329,6.155c0,.324-.005.636-.007.932a4.342,4.342,0,0,0,.075.851q.654-.8,1.842-2.539t2.581-3.951q1.394-2.217,2.829-4.557t2.625-4.4q1.189-2.058,2.051-3.51a20.131,20.131,0,0,0,1.027-1.856,1.419,1.419,0,0,1,1.384-.8A2.69,2.69,0,0,1,146.771,131.52Z" fill="#db0038"/>
    <path id="Caminho_262" data-name="Caminho 262" d="M165.522,134.861q-.36.63-1.562,2.592t-2.844,4.51q-1.643,2.547-3.624,5.4t-3.935,5.18a34.838,34.838,0,0,1-3.658,3.816,4.473,4.473,0,0,1-2.918,1.422q-1.134-.062-1.826-2.21a25.8,25.8,0,0,1-1-5.37q-.311-3.221-.308-6.954t.179-6.969a47.771,47.771,0,0,1,.6-5.728A12.732,12.732,0,0,1,145.708,127a4.135,4.135,0,0,1,1.641-1.816,4.053,4.053,0,0,1,2.175-.449,1.613,1.613,0,0,1,1.678,1.958q-.054.97-.281,2.906t-.483,4.355q-.254,2.421-.605,5.12t-.607,5.16q-.258,2.462-.49,4.476t-.29,3.068c-.023.432-.039.715-.046.849s.042.205.151.211q.484.027,1.7-1.407T153,147.887q1.534-2.106,3.257-4.649T159.4,138.5q1.417-2.193,2.352-3.685t1.023-1.648a1.489,1.489,0,0,1,1.5-.729,1.351,1.351,0,0,1,1.1.588,1.784,1.784,0,0,1,.345,1.115A2.6,2.6,0,0,1,165.522,134.861Zm-17.694-13.224a2.255,2.255,0,0,1-1.9-.875,3.11,3.11,0,0,1-.462-1.932,4.773,4.773,0,0,1,.99-2.5,2.683,2.683,0,0,1,2.459-1.2,2.616,2.616,0,0,1,2.061.884,2.856,2.856,0,0,1,.543,1.937,4.257,4.257,0,0,1-.989,2.5,3.159,3.159,0,0,1-2.379,1.208Z" fill="#db0038"/>
    <path id="Caminho_263" data-name="Caminho 263" d="M187.7,135.289a1.617,1.617,0,0,1,.495,1.439,3.365,3.365,0,0,1-1.243,2.066,14.015,14.015,0,0,1-2.689,1.867,31.891,31.891,0,0,1-3.307,1.554q-1.749.708-3.018,1.139a10.654,10.654,0,0,1,1.264,2.99,9.774,9.774,0,0,1,.164,3.359,8.674,8.674,0,0,1-1.655,4.344,11.307,11.307,0,0,1-3.385,3.013,15.561,15.561,0,0,1-4.425,1.719,16.1,16.1,0,0,1-4.768.377,10.177,10.177,0,0,1-2.932-.768,8.317,8.317,0,0,1-2.437-1.569,6.526,6.526,0,0,1-1.585-2.292,6.073,6.073,0,0,1-.364-3.014,6.465,6.465,0,0,1,1.206-3.21,10.142,10.142,0,0,1,2.585-2.409,18.513,18.513,0,0,1,3.664-1.842q2.082-.791,4.444-1.512a26.915,26.915,0,0,1-3.393-2.53A22.618,22.618,0,0,1,163.1,136.6a17.167,17.167,0,0,1-2.263-3.914,8.555,8.555,0,0,1-.6-4.222,8.78,8.78,0,0,1,.666-2.373,8.911,8.911,0,0,1,1.618-2.513,7.81,7.81,0,0,1,2.694-1.907,7.507,7.507,0,0,1,3.882-.474,3.681,3.681,0,0,1,2.687,1.149,3.2,3.2,0,0,1,.524,2.3,8.282,8.282,0,0,1-.716,2.449,21.192,21.192,0,0,1-1.381,2.58q-.79,1.259-1.61,2.432t-1.391,1.927q1.1,1.1,2.035,1.892t1.909,1.553q.977.759,2.034,1.526t2.339,1.721a47.487,47.487,0,0,0,5.66-2.195,12.7,12.7,0,0,0,4.2-3.006,1.486,1.486,0,0,1,1.367-.585A2.16,2.16,0,0,1,187.7,135.289Zm-26.582,16.583a3.805,3.805,0,0,0,.618,2.554,2.88,2.88,0,0,0,2.217,1.341,7.3,7.3,0,0,0,3.051-.319A9.508,9.508,0,0,0,169.807,154a8.463,8.463,0,0,0,2.124-2.3,6.511,6.511,0,0,0,1-2.785,6.335,6.335,0,0,0-.742-3.667q-1.941.6-3.845,1.252a29.7,29.7,0,0,0-3.41,1.381,11.485,11.485,0,0,0-2.542,1.638,3.46,3.46,0,0,0-1.23,1.945Zm5.436-22.228q.6-.993,1.61-2.432a5.506,5.506,0,0,0,1.1-2.244.454.454,0,0,0-.193-.469,1.082,1.082,0,0,0-.47-.174,2.056,2.056,0,0,0-1.949,1.051,5.721,5.721,0,0,0-.987,2.7,7.142,7.142,0,0,0,.211,2.55Z" fill="#db0038"/>
    <path id="Caminho_264" data-name="Caminho 264" d="M204.233,138.133a1.51,1.51,0,0,1,.659,1.5c.009-.052-.065.059-.219.334s-.518.833-1.091,1.67-1.446,1.995-2.616,3.474-2.795,3.392-4.871,5.736q-.8.855-2.325,2.7t-3.342,3.644a23.18,23.18,0,0,1-3.736,3.046,4.92,4.92,0,0,1-3.366,1.014,1.924,1.924,0,0,1-1.491-1.432,11.258,11.258,0,0,1-.54-3.248,32.581,32.581,0,0,1,.173-4.609q.263-2.625.729-5.505.558-3.438,1.289-6.932t1.437-6.579q.705-3.087,1.289-5.414t.751-3.366q-.879-.143-2.525-.369a32.106,32.106,0,0,1-3.187-.6,11.276,11.276,0,0,1-2.636-.951,1.412,1.412,0,0,1-.241-2.565,1.8,1.8,0,0,1,1.23-.242q2.32.376,4.253.854t3.772.777a50.471,50.471,0,0,0,1.4-5.876q.522-2.967,1.141-5.259a10.048,10.048,0,0,1,1.652-3.608,2.815,2.815,0,0,1,2.874-1.019,2.258,2.258,0,0,1,1.8,1.075,4.448,4.448,0,0,1,.149,2.623q-.47,2.894-1.264,6.271t-1.3,6.511q3.076.252,4.756.279t2.424-.017a2.359,2.359,0,0,0,.885-.144.329.329,0,0,1,.22-.087,1.687,1.687,0,0,1,1.081.668,1.492,1.492,0,0,1,.34,1.2,1.223,1.223,0,0,1-1.323,1.067q-.174.053-2.466.281a42.269,42.269,0,0,1-6.6-.07q-.849,4.213-1.955,8.506t-2.122,8.275q-1.016,3.981-1.866,7.454t-1.267,6.032c-.051.32-.1.628-.149.92a4.388,4.388,0,0,0-.056.853q.77-.694,2.209-2.227t3.155-3.511q1.715-1.977,3.492-4.07t3.267-3.944q1.488-1.851,2.563-3.155a20.088,20.088,0,0,0,1.3-1.677,1.417,1.417,0,0,1,1.489-.579A2.715,2.715,0,0,1,204.233,138.133Z" fill="#db0038"/>
    <path id="Caminho_265" data-name="Caminho 265" d="M242.612,147.164a1.569,1.569,0,0,1,.524,1.627c.013-.052-.066.04-.234.277s-.584.749-1.244,1.533-1.633,1.872-2.911,3.258-3.016,3.177-5.211,5.369a87.193,87.193,0,0,1-8.495,7.578q-3.037,2.228-4.666,1.834a4.107,4.107,0,0,0-.68-.081c-.3-.017-.558-.245-.78-.687a6.06,6.06,0,0,1-.4-2.264,29.567,29.567,0,0,1,.4-4.9q.168-1.375.546-3.285t.821-4.094q.445-2.184.918-4.488t.908-4.448q-2.277,3.2-5.438,6.94-3.063,3.68-5.474,6.223a55.565,55.565,0,0,1-4.251,4.1,13.124,13.124,0,0,1-3.235,2.137,3.931,3.931,0,0,1-2.421.333,3.152,3.152,0,0,1-2.09-1.921,12.048,12.048,0,0,1-.954-4.022,29.041,29.041,0,0,1,.107-5.475,48.718,48.718,0,0,1,1.115-6.357q.551-2.283,1.519-5.093a20.7,20.7,0,0,1,2.62-5.16q2.154-3.063,4.311-3.712a7.209,7.209,0,0,1,3.732-.267,7.921,7.921,0,0,1,5,3.79,15.962,15.962,0,0,1,2.125,7.43,19.433,19.433,0,0,1,5.837-5.885q2.9-1.676,4.479-1.3t1.139,2.192q-.019.079-.633,1.931t-1.473,4.728q-.861,2.877-1.863,6.344t-1.781,6.7q-.912,3.781-1.3,6.438.624-.516,1.639-1.439t2.2-2.053q1.188-1.13,2.4-2.339t2.3-2.279q3.624-3.627,5.435-5.607t2.658-2.9a4.821,4.821,0,0,1,1.17-1.052,1.648,1.648,0,0,1,.954.022A2.628,2.628,0,0,1,242.612,147.164Zm-38.044,11.915q.551.132,1.955-1.2a42.614,42.614,0,0,0,3.029-3.228q1.624-1.9,3.269-3.88t2.615-3.245a14.4,14.4,0,0,0,.171-3.126,18.857,18.857,0,0,0-.461-3.445,10.381,10.381,0,0,0-1.1-2.889,2.761,2.761,0,0,0-1.653-1.44,1.938,1.938,0,0,0-1.558.416,7.153,7.153,0,0,0-1.81,2.147,25.9,25.9,0,0,0-1.969,4.193,53.983,53.983,0,0,0-1.959,6.57q-.4,1.655-.7,3.248a26.065,26.065,0,0,0-.4,2.863,8.873,8.873,0,0,0,.037,2.092C204.128,158.71,204.3,159.015,204.568,159.079Z" fill="#db0038"/>
    <g id="Grupo_140" data-name="Grupo 140">
      <g id="Grupo_139-2" data-name="Grupo 139">
        <path id="Caminho_266" data-name="Caminho 266" d="M103.541,179.188a.687.687,0,0,1,.454.606q-.15.441-.41,1.087t-.74,1.74c-.32.729-.766,1.667-1.323,2.808-.6,1.238-1.129,2.241-1.585,3a17.137,17.137,0,0,1-1.172,1.749,3.44,3.44,0,0,1-.851.828,1.588,1.588,0,0,1-.616.235,1.436,1.436,0,0,1-1.263-.544,5.938,5.938,0,0,1-.97-1.7,17.832,17.832,0,0,1-.779-2.555q-.347-1.47-.694-3.153a.893.893,0,0,1-.137.675,2,2,0,0,0-.322.622,39.979,39.979,0,0,1-2.547,5.659q-1.066,1.792-2.03,1.9a1.4,1.4,0,0,1-1.156-.485,5.542,5.542,0,0,1-1.017-1.52,11.711,11.711,0,0,1-.8-2.295,20.269,20.269,0,0,1-.6-5.111,9.248,9.248,0,0,1,.352-2.528,3.91,3.91,0,0,1,1.285-2.181,3.369,3.369,0,0,1,1.565-.667,3.71,3.71,0,0,1,2.7.816,6.667,6.667,0,0,1,2.033,2.787l.19-.7q-.109-1.134-.226-2.715t-.132-3.3q-.016-1.716.124-3.393a14.022,14.022,0,0,1,.577-3.06,6.381,6.381,0,0,1,1.209-2.277,2.854,2.854,0,0,1,1.98-1,1.712,1.712,0,0,1,1.387.45,2.547,2.547,0,0,1,.659,1.694,8.75,8.75,0,0,1-.21,2.342q-.287,1.455-.756,3.1T96.7,175.4a24.557,24.557,0,0,0-1.032,2.9,18.319,18.319,0,0,0,.395,3.665q.225,1.821.479,3.389t.489,2.727a12.547,12.547,0,0,0,.427,1.677q.384-.571,1.219-2.023c.557-.968,1.1-2.03,1.64-3.166.694-1.463,1.217-2.569,1.536-3.311s.545-1.266.68-1.575.231-.471.291-.489a2.607,2.607,0,0,1,.384-.048A1.18,1.18,0,0,1,103.541,179.188ZM88.987,190.3q.143-.015.369-.451t.535-1.111q.311-.678.626-1.5t.618-1.6q.3-.783.564-1.452c.175-.447.311-.783.411-1.008a6.148,6.148,0,0,0-.387-1.321,8.148,8.148,0,0,0-.7-1.362,4.521,4.521,0,0,0-.894-1.037,1.258,1.258,0,0,0-.918-.353q-.438.045-.749.757a6.725,6.725,0,0,0-.449,1.838,20.473,20.473,0,0,0-.131,2.574,29.546,29.546,0,0,0,.17,2.973,14.619,14.619,0,0,0,.378,2.2Q88.665,190.337,88.987,190.3Zm7.435-18.762q.486-1.654.73-2.927a7.673,7.673,0,0,0,.181-1.982,1.2,1.2,0,0,0-.115-.455.245.245,0,0,0-.241-.157c-.124.011-.254.183-.386.517a8.954,8.954,0,0,0-.378,1.25q-.177.748-.353,1.695t-.278,1.867q-.1.921-.162,1.7a7.56,7.56,0,0,0-.016,1.235.516.516,0,0,0,.031.14.6.6,0,0,1,.032.141q.267-.741.5-1.494T96.422,171.541Z" fill="#001b2a"/>
        <path id="Caminho_267" data-name="Caminho 267" d="M113.548,178.424a.731.731,0,0,1,.481.611,1.1,1.1,0,0,1-.052.324q-.535,1.427-1.122,3.322a25.231,25.231,0,0,1-1.418,3.594,11.658,11.658,0,0,1-1.991,2.926,4.294,4.294,0,0,1-2.888,1.359,3.726,3.726,0,0,1-3.277-1.293,7,7,0,0,1-1.49-4.11,12.9,12.9,0,0,1,.146-3.283,12.3,12.3,0,0,1,.879-2.967,7.044,7.044,0,0,1,1.47-2.173,3.083,3.083,0,0,1,1.946-.936,1.772,1.772,0,0,1,1.479.46,2.085,2.085,0,0,1,.58,1.35,3.254,3.254,0,0,1-.2,1.354,4.663,4.663,0,0,1-.7,1.266,5.374,5.374,0,0,1-1.114,1.066c-.442.32-1.276.554-1.447.756a4.282,4.282,0,0,0-.159,1.477,12.213,12.213,0,0,0,.025,1.463q.031.39.121,1.062a6.6,6.6,0,0,0,.324,1.332,3.351,3.351,0,0,0,.653,1.127,1.268,1.268,0,0,0,1.1.415,2.546,2.546,0,0,0,1.713-.879,8.366,8.366,0,0,0,1.314-1.952,19.327,19.327,0,0,0,1.029-2.5q.455-1.352.836-2.485a19.687,19.687,0,0,1,.736-1.906q.353-.772.757-.8A.64.64,0,0,1,113.548,178.424Zm-7.036.567a2.777,2.777,0,0,0,.276-.735,2.271,2.271,0,0,0,.093-.722c-.018-.236-.124-.347-.32-.333a.607.607,0,0,0-.454.356,4.064,4.064,0,0,0-.345.795q-.15.457-.274.985c-.083.352-.164.662-.241.93a3.126,3.126,0,0,0,.812-.688C106.249,179.338,106.418,179.138,106.512,178.991Z" fill="#001b2a"/>
        <path id="Caminho_268" data-name="Caminho 268" d="M132.893,177.459a.716.716,0,0,1,.428.663.9.9,0,0,1-.028.286q-.17.4-.466,1.352t-.747,2.147q-.45,1.192-1.055,2.5a13.473,13.473,0,0,1-1.413,2.39,8.2,8.2,0,0,1-1.826,1.806,4.141,4.141,0,0,1-2.242.779,3.657,3.657,0,0,1-3.231-1.4,7.14,7.14,0,0,1-1.331-4.128,12.8,12.8,0,0,1,.245-3.269,12.263,12.263,0,0,1,.967-2.932,7.022,7.022,0,0,1,1.535-2.122,3.082,3.082,0,0,1,1.972-.876,1.84,1.84,0,0,1,1.408.49,1.983,1.983,0,0,1,.6,1.418,4.141,4.141,0,0,1-.029.607,2.6,2.6,0,0,1-.173.685,1.979,1.979,0,0,1-.326.548.692.692,0,0,1-.522.237.781.781,0,0,1-.521-.157.619.619,0,0,1-.244-.495,2.209,2.209,0,0,1,.172-.677,2.339,2.339,0,0,0,.162-.894c-.008-.168-.048-.25-.123-.247a1.038,1.038,0,0,0-.8.536,4.853,4.853,0,0,0-.591,1.311,13.986,13.986,0,0,0-.4,1.748q-.159.954-.244,1.866t-.122,1.664q-.036.752-.017,1.142a8.567,8.567,0,0,0,.126,1.081,4.325,4.325,0,0,0,.324,1.072,2.616,2.616,0,0,0,.584.828,1.228,1.228,0,0,0,.939.312,2.543,2.543,0,0,0,1.739-.827,8.865,8.865,0,0,0,1.389-1.912,16.872,16.872,0,0,0,1.1-2.451q.477-1.318.912-2.441t.792-1.882q.357-.762.762-.776A1,1,0,0,1,132.893,177.459Z" fill="#001b2a"/>
        <path id="Caminho_269" data-name="Caminho 269" d="M146.3,177.2a.666.666,0,0,1,.376.6,1.14,1.14,0,0,1-.069.355q-.214.395-.733,1.342t-1.209,2.115q-.693,1.164-1.469,2.422t-1.55,2.322A15.071,15.071,0,0,1,140.2,188.1a1.9,1.9,0,0,1-1.14.685q-.54.015-.867-.707a8.229,8.229,0,0,1-.539-1.838,23.458,23.458,0,0,1-.323-2.485q-.113-1.367-.185-2.667t-.1-2.33a11.552,11.552,0,0,0-.116-1.529,5.659,5.659,0,0,1-1.637,1.171,4.719,4.719,0,0,1-1.875.471,4.207,4.207,0,0,1-1.272-.171,3.939,3.939,0,0,1-1.271-.615,3.583,3.583,0,0,1-.98-1.091,3.338,3.338,0,0,1-.432-1.594,3.928,3.928,0,0,1,.17-1.3,4.2,4.2,0,0,1,.564-1.187,2.974,2.974,0,0,1,.894-.857,2.388,2.388,0,0,1,1.193-.348,1.657,1.657,0,0,1,1.523.6,2.766,2.766,0,0,1,.475,1.536,6.559,6.559,0,0,1-.249,1.956,6.442,6.442,0,0,1-.664,1.646,3.99,3.99,0,0,0,.824-.117,3.047,3.047,0,0,0,1.623-1.031,4.541,4.541,0,0,0,.685-1.16c.3-.7.684-1.053,1.152-1.065a1.175,1.175,0,0,1,.576.162,1.936,1.936,0,0,1,.586.5,3.246,3.246,0,0,1,.463.825,3.17,3.17,0,0,1,.211,1.1q.024.961-.011,2.565t.01,3.349q.028,1.14.09,2.189a11.9,11.9,0,0,0,.265,1.935q.21-.325.682-1.067t1.033-1.716q.561-.973,1.2-2.019t1.169-1.981q.532-.935.908-1.582t.482-.827a.677.677,0,0,1,.656-.366A1.2,1.2,0,0,1,146.3,177.2Zm-13.667-3.976a1.248,1.248,0,0,0-1.107.592,2.083,2.083,0,0,0-.342,1.242,2.368,2.368,0,0,0,.238.953,1.752,1.752,0,0,0,.634.726,4.57,4.57,0,0,0,.554-1,4.271,4.271,0,0,0,.339-1.954,1.142,1.142,0,0,0-.069-.372A.286.286,0,0,0,132.635,173.228Z" fill="#001b2a"/>
        <path id="Caminho_270" data-name="Caminho 270" d="M154.643,178.068q-.147.287-.64,1.177t-1.164,2.051q-.672,1.159-1.482,2.464t-1.615,2.381a15.827,15.827,0,0,1-1.521,1.778,2,2,0,0,1-1.255.709q-.506.007-.879-.913a11.255,11.255,0,0,1-.614-2.324q-.24-1.4-.357-3.04t-.14-3.061a20.489,20.489,0,0,1,.088-2.53,5.39,5.39,0,0,1,.381-1.591,1.821,1.821,0,0,1,.688-.847,1.892,1.892,0,0,1,.975-.263.721.721,0,0,1,.821.81q0,.428-.041,1.282t-.088,1.925q-.042,1.068-.12,2.263t-.118,2.28q-.042,1.087-.086,1.978t-.037,1.354l0,.374c0,.06.025.089.074.088q.218,0,.716-.667t1.128-1.632q.626-.968,1.329-2.13t1.283-2.162q.58-1,.964-1.678t.42-.75a.675.675,0,0,1,.66-.357.618.618,0,0,1,.515.23.77.77,0,0,1,.184.481A1.126,1.126,0,0,1,154.643,178.068Zm-8.4-5.315a1.052,1.052,0,0,1-.893-.325,1.342,1.342,0,0,1-.272-.833,2.055,2.055,0,0,1,.372-1.128,1.241,1.241,0,0,1,1.087-.6,1.105,1.105,0,0,1,1.277,1.16,1.831,1.831,0,0,1-.375,1.126,1.456,1.456,0,0,1-1.048.6Z" fill="#001b2a"/>
        <path id="Caminho_271" data-name="Caminho 271" d="M171.835,177.32a.688.688,0,0,1,.387.652c0-.024-.025.023-.077.14s-.188.375-.4.774-.545.954-.976,1.667-1.026,1.644-1.779,2.792A40.651,40.651,0,0,1,166,187.4q-1.105,1.246-1.85,1.236a1.9,1.9,0,0,0-.3.031c-.132.022-.267-.051-.407-.219a2.635,2.635,0,0,1-.4-.931,14.051,14.051,0,0,1-.313-2.141c-.038-.4-.073-.891-.09-1.461s-.035-1.181-.051-1.835-.033-1.323-.049-2.013-.033-1.353-.05-1.995c-.454,1.064-1.025,2.235-1.688,3.51-.648,1.246-1.231,2.323-1.759,3.21a25.425,25.425,0,0,1-1.429,2.183,5.84,5.84,0,0,1-1.183,1.243,1.77,1.77,0,0,1-1.014.391,1.41,1.41,0,0,1-1.106-.6,5.272,5.272,0,0,1-.838-1.619,12.631,12.631,0,0,1-.536-2.348,20.981,20.981,0,0,1-.193-2.831q0-1.032.119-2.333a8.809,8.809,0,0,1,.6-2.477,3.908,3.908,0,0,1,1.508-2.033,3.35,3.35,0,0,1,1.624-.5,3.653,3.653,0,0,1,2.616,1.115,6.913,6.913,0,0,1,1.706,2.969,8.416,8.416,0,0,1,1.981-3.1,3.085,3.085,0,0,1,1.859-.991q.738.012.726.831,0,.036-.088.889t-.181,2.17q-.095,1.315-.191,2.9t-.12,3.043q-.025,1.71.065,2.886.222-.28.574-.774t.762-1.092q.409-.6.822-1.232t.788-1.2q1.24-1.9,1.853-2.917t.9-1.493a2.123,2.123,0,0,1,.417-.56.766.766,0,0,1,.425-.078A1.211,1.211,0,0,1,171.835,177.32Zm-15.519,8.8q.254,0,.727-.711a19.1,19.1,0,0,0,.986-1.688q.514-.977,1.03-1.989t.815-1.651a6.214,6.214,0,0,0-.247-1.355,8.034,8.034,0,0,0-.559-1.428,4.535,4.535,0,0,0-.785-1.126,1.268,1.268,0,0,0-.881-.449.894.894,0,0,0-.646.337,3.105,3.105,0,0,0-.572,1.1,11.055,11.055,0,0,0-.424,1.994,23.273,23.273,0,0,0-.166,3.009q0,.747.035,1.46a11.268,11.268,0,0,0,.127,1.264,3.894,3.894,0,0,0,.234.891C156.087,186.005,156.2,186.118,156.316,186.118Z" fill="#001b2a"/>
        <path id="Caminho_272" data-name="Caminho 272" d="M188.044,177.943a.706.706,0,0,1,.336.623,3.479,3.479,0,0,1-.407.764q-.321.519-1.051,1.57c-.487.7-1.172,1.683-2.058,2.914-.743,1.033-1.4,1.885-1.933,2.551a20.112,20.112,0,0,1-1.391,1.58,6.63,6.63,0,0,1-.972.834,1.505,1.505,0,0,1-.6.279,1,1,0,0,1-.876-.426,2.805,2.805,0,0,1-.23-1.541c.012-.308.045-.729.1-1.261s.114-1.119.174-1.758.122-1.3.185-1.989.106-1.362.131-2.026l.026-.676q.012-.321-.021-.91a6.656,6.656,0,0,0-.176-1.183,3.673,3.673,0,0,0-.421-1.049.925.925,0,0,0-.794-.474,1.552,1.552,0,0,0-1.224.742,9.646,9.646,0,0,0-1.128,1.923,24.79,24.79,0,0,0-1,2.552q-.462,1.394-.772,2.649t-.5,2.177a9.354,9.354,0,0,0-.2,1.17,1.352,1.352,0,0,1-.2.671,2.224,2.224,0,0,1-.449.54,2.193,2.193,0,0,1-.569.359,1.33,1.33,0,0,1-.564.127q-.505-.012-.529-.476-.185-1.287-.294-2.768t-.148-2.943q-.037-1.461-.043-2.815t.021-2.422q.025-1.068.06-1.744a3.733,3.733,0,0,1,.073-.746,1.03,1.03,0,0,1,.457-.577,1.408,1.408,0,0,1,.856-.246,1.289,1.289,0,0,1,.893.434,2.439,2.439,0,0,1,.493,1.527q0,.072-.019,1.318t-.085,3.7c1.144-4.457,2.786-6.654,4.894-6.579a4.311,4.311,0,0,1,1.986.483,3.2,3.2,0,0,1,1.2,1.17,4.65,4.65,0,0,1,.573,1.663,9.893,9.893,0,0,1,.1,1.929,15.782,15.782,0,0,1-.279,2.359q-.228,1.185-.468,2.208c-.159.684-.308,1.271-.448,1.765a5.4,5.4,0,0,0-.22,1.024c0,.1.018.144.067.145.152-.183.368-.46.65-.828s.576-.766.885-1.193.612-.848.91-1.262.549-.76.757-1.036q1.362-1.9,2.055-2.918t1.008-1.466a1.81,1.81,0,0,1,.429-.5.92.92,0,0,1,.37-.035A1.249,1.249,0,0,1,188.044,177.943Z" fill="#001b2a"/>
        <path id="Caminho_273" data-name="Caminho 273" d="M188.352,196.788q-.285-.015-.327-.231a.814.814,0,0,1,.08-.5.651.651,0,0,1,.358-.338,3,3,0,0,0,.5-.258,1.827,1.827,0,0,0,.514-.561,3.392,3.392,0,0,0,.409-1.244,5.1,5.1,0,0,0,.036-.979,8.157,8.157,0,0,0-.132-1.184,7.511,7.511,0,0,0-.3-1.122,2.879,2.879,0,0,0-.425-.825,3.622,3.622,0,0,1-2.8-1.833,7.258,7.258,0,0,1-.821-4.077,12.778,12.778,0,0,1,.574-3.227,12.254,12.254,0,0,1,1.258-2.82,7.022,7.022,0,0,1,1.741-1.956,3.079,3.079,0,0,1,2.051-.672,1.835,1.835,0,0,1,1.351.629,1.982,1.982,0,0,1,.45,1.471,3.9,3.9,0,0,1-.09.6,2.6,2.6,0,0,1-.241.663,1.979,1.979,0,0,1-.38.514.7.7,0,0,1-.543.183.788.788,0,0,1-.5-.209.618.618,0,0,1-.192-.518,2.2,2.2,0,0,1,.239-.656,2.336,2.336,0,0,0,.251-.873c.01-.167-.023-.254-.1-.258a1.04,1.04,0,0,0-.848.452,4.857,4.857,0,0,0-.721,1.245,13.821,13.821,0,0,0-.575,1.7q-.253.932-.431,1.832t-.289,1.643q-.114.744-.133,1.134a8.762,8.762,0,0,0,.016,1.089,4.285,4.285,0,0,0,.219,1.1,2.613,2.613,0,0,0,.505.883,1.25,1.25,0,0,0,.915.406,2.556,2.556,0,0,0,1.825-.646,8.875,8.875,0,0,0,1.576-1.763,17.01,17.01,0,0,0,1.346-2.326q.607-1.264,1.153-2.336t.979-1.793q.434-.722.837-.695a1,1,0,0,1,.291.055.714.714,0,0,1,.358.7.935.935,0,0,1-.055.282c-.114.23-.287.612-.518,1.143s-.51,1.133-.834,1.8-.693,1.377-1.1,2.124a16.879,16.879,0,0,1-1.39,2.125,10.571,10.571,0,0,1-1.685,1.753,5.455,5.455,0,0,1-1.943,1.047,3.923,3.923,0,0,1,1.13,2.027,5.28,5.28,0,0,1,.017,2.48,4.063,4.063,0,0,1-1.177,2.055A3.12,3.12,0,0,1,188.352,196.788Z" fill="#001b2a"/>
        <path id="Caminho_274" data-name="Caminho 274" d="M215.528,179.937a.685.685,0,0,1,.342.676c0-.023-.027.021-.086.135s-.213.361-.458.744-.608.915-1.087,1.6-1.137,1.571-1.967,2.664a40.713,40.713,0,0,1-3.252,3.844q-1.188,1.169-1.932,1.107a1.8,1.8,0,0,0-.3.011c-.133.012-.263-.069-.391-.246a2.649,2.649,0,0,1-.335-.956,14.3,14.3,0,0,1-.167-2.158c-.011-.4-.012-.894.01-1.464s.045-1.181.073-1.834.058-1.322.088-2.011.06-1.353.086-1.994c-.525,1.03-1.175,2.16-1.923,3.386-.732,1.2-1.388,2.234-1.975,3.083a25.365,25.365,0,0,1-1.575,2.081,5.848,5.848,0,0,1-1.265,1.16,1.775,1.775,0,0,1-1.039.321,1.411,1.411,0,0,1-1.063-.679,5.279,5.279,0,0,1-.727-1.672,12.659,12.659,0,0,1-.375-2.379,21.129,21.129,0,0,1,0-2.837q.067-1.031.278-2.32a8.737,8.737,0,0,1,.765-2.431,3.9,3.9,0,0,1,1.642-1.925,3.352,3.352,0,0,1,1.656-.386,3.655,3.655,0,0,1,2.535,1.29,6.9,6.9,0,0,1,1.5,3.078,8.413,8.413,0,0,1,2.19-2.953,3.079,3.079,0,0,1,1.923-.862q.736.062.668.878,0,.036-.148.881t-.328,2.152q-.184,1.308-.388,2.88t-.326,3.029q-.143,1.7-.132,2.883.24-.266.626-.733t.835-1.037q.45-.568.9-1.173t.869-1.14q1.368-1.811,2.048-2.784t1-1.429a2.116,2.116,0,0,1,.455-.53.77.77,0,0,1,.43-.049A1.21,1.21,0,0,1,215.528,179.937Zm-16.094,7.721c.169.011.427-.208.774-.66a19.035,19.035,0,0,0,1.1-1.617q.579-.939,1.163-1.914t.926-1.592a6.164,6.164,0,0,0-.155-1.369,8.034,8.034,0,0,0-.461-1.463,4.52,4.52,0,0,0-.707-1.176,1.266,1.266,0,0,0-.849-.508.889.889,0,0,0-.667.292,3.093,3.093,0,0,0-.646,1.061,10.99,10.99,0,0,0-.559,1.961,23.19,23.19,0,0,0-.371,2.991q-.051.745-.064,1.459a11.331,11.331,0,0,0,.041,1.27,3.8,3.8,0,0,0,.174.9C199.213,187.529,199.314,187.649,199.434,187.658Z" fill="#001b2a"/>
        <path id="Caminho_275" data-name="Caminho 275" d="M225.552,180.995a.707.707,0,0,1,.226.634,1.462,1.462,0,0,1-.562.906,6.346,6.346,0,0,1-1.214.817,14.8,14.8,0,0,1-1.491.682q-.788.312-1.358.5a4.623,4.623,0,0,1,.579,1.313,4.183,4.183,0,0,1,.083,1.477,3.76,3.76,0,0,1-.73,1.911,5.027,5.027,0,0,1-1.5,1.331,7.072,7.072,0,0,1-1.967.768,6.994,6.994,0,0,1-2.125.187,4.47,4.47,0,0,1-1.312-.321,3.73,3.73,0,0,1-1.1-.675,2.9,2.9,0,0,1-.727-.995,2.63,2.63,0,0,1-.19-1.323,2.8,2.8,0,0,1,.511-1.42,4.479,4.479,0,0,1,1.14-1.076,8.3,8.3,0,0,1,1.635-.831q.931-.358,1.992-.684a12.51,12.51,0,0,1-1.547-1.1,10.308,10.308,0,0,1-1.481-1.48,7.606,7.606,0,0,1-1.06-1.707,3.673,3.673,0,0,1-.314-1.852,3.722,3.722,0,0,1,.28-1.047,3.852,3.852,0,0,1,.713-1.116,3.4,3.4,0,0,1,2.985-1.08,1.725,1.725,0,0,1,1.237.495,1.374,1.374,0,0,1,.255,1.009,3.513,3.513,0,0,1-.311,1.079,9.216,9.216,0,0,1-.611,1.139q-.351.557-.715,1.076t-.618.853q.509.479.937.824c.284.23.576.456.874.675s.607.442.928.665.677.474,1.067.752a22.66,22.66,0,0,0,2.55-.971,5.732,5.732,0,0,0,1.9-1.319.681.681,0,0,1,.62-.255A1,1,0,0,1,225.552,180.995Zm-11.909,7.35a1.648,1.648,0,0,0,.3,1.119,1.3,1.3,0,0,0,1,.576,3.321,3.321,0,0,0,1.361-.155,4.271,4.271,0,0,0,1.247-.648,3.752,3.752,0,0,0,.94-1.016,2.831,2.831,0,0,0,.434-1.227,2.733,2.733,0,0,0-.352-1.61c-.581.181-1.154.369-1.723.564a13.075,13.075,0,0,0-1.523.623,5.054,5.054,0,0,0-1.129.735,1.508,1.508,0,0,0-.536.862Zm2.275-9.8c.176-.293.414-.653.714-1.077a2.386,2.386,0,0,0,.485-.991.2.2,0,0,0-.092-.206.52.52,0,0,0-.216-.074.938.938,0,0,0-.881.47,2.445,2.445,0,0,0-.427,1.194,3.032,3.032,0,0,0,.117,1.12Z" fill="#001b2a"/>
      </g>
    </g>
    <path id="Caminho_276" data-name="Caminho 276" d="M.934,150.532" fill="#db0038"/>
    <g id="Grupo_141" data-name="Grupo 141">
      <path id="Caminho_277" data-name="Caminho 277" d="M93.609,129.618a2.287,2.287,0,0,0-1.655-1.866,3.012,3.012,0,0,0-.916.069,2.061,2.061,0,0,0-1.761,1.631q-2,7.357-4.083,12.818a59.168,59.168,0,0,1-4.482,9.422,35.516,35.516,0,0,1-5.044,6.639,28.506,28.506,0,0,1-5.551,4.426q6.5-8.036,4.949-15.713a16.7,16.7,0,0,0-10.943-13.307,25.279,25.279,0,0,0-8.677-1.545,43.845,43.845,0,0,0-9.118.861,37.548,37.548,0,0,0,4-6.619,41.1,41.1,0,0,0,3.894-14.9,26.851,26.851,0,0,0-.441-7.055q-1.265-6.248-5.1-9.131t-9.416-1.753a15.894,15.894,0,0,0-7.772,3.782,29.3,29.3,0,0,0-5.022,5.9c-.047-.61-.111-1.215-.194-1.82s-.185-1.2-.306-1.8q-.654-3.234-2.552-2.851a4.034,4.034,0,0,0-1.829,1.009,8.435,8.435,0,0,0-1.67,2.077,11.051,11.051,0,0,0-1.133,2.724,7.582,7.582,0,0,0-.217,2.944q.646,5.577,1.292,10.58a115.979,115.979,0,0,0-6.592,15.441c-2.46,7.005-4.715,15.327-.923,22.315A11.868,11.868,0,0,0,28.3,158.51a10.2,10.2,0,0,0,5.1-9.628c-.123-2.262-.159-4.586-.369-6.867,1.456-.3,8.2-2.935,10.36-3.372a43.025,43.025,0,0,1,7.266-.833,20.865,20.865,0,0,1,6.857.877,12.654,12.654,0,0,1,5.446,3.369,13.34,13.34,0,0,1,3.163,6.734c1.78,8.786-8.787,14.526-15.524,17.177-8.138,3.2-17.6,4.977-26.334,4.1-4.564-.46-9.146-.875-13.648-1.787-1.669-.338-3.311-.788-4.955-1.227-1.352-.361-3.068-1.187-4.469-.753a1.52,1.52,0,0,0-.712.418c-3.62,4.176,14.171,7.154,16.621,7.485,19.789,2.674,47.283,2.818,62.107-12.994a47.843,47.843,0,0,0,8.037-12.228,105.444,105.444,0,0,0,6.429-18.448A2.387,2.387,0,0,0,93.609,129.618Zm-72.474,26.15c-6.88.026-6.511-9.571-5.825-14.086a85.679,85.679,0,0,1,5.434-18.987q.62,4.428,1.242,8.329,1.218,7.657,2.36,13.754l.137-.028a32.645,32.645,0,0,1,.7,5.934C25.146,153.332,24.145,155.757,21.135,155.768Zm24-41.524a36.407,36.407,0,0,1-1.9,8.691,32.164,32.164,0,0,1-4.045,7.847,21.455,21.455,0,0,1-6.071,5.876,3.7,3.7,0,0,1-1.07.449Q31,131.394,29.929,124.932T27.7,111.037q.222-.624.831-2.492a19.82,19.82,0,0,1,1.822-3.912,19.333,19.333,0,0,1,2.949-3.791A8.22,8.22,0,0,1,37.6,98.576l.557-.113a4.569,4.569,0,0,1,2.636.4,4.97,4.97,0,0,1,1.9,1.648,11.129,11.129,0,0,1,1.257,2.476,19.573,19.573,0,0,1,.81,2.856A28.68,28.68,0,0,1,45.132,114.244Z" fill="#db0038"/>
    </g>
    <g id="Grupo_142" data-name="Grupo 142">
      <path id="Caminho_278" data-name="Caminho 278" d="M154.419,73.28a2.365,2.365,0,0,0-.683-.108,1.374,1.374,0,0,0-1.3.831q-.2.39-.9,1.783t-1.7,3.41q-1,2.016-2.215,4.268t-2.284,4.347q-1.074,2.094-1.988,3.69t-1.322,2.3a25.048,25.048,0,0,1-.7-4.05q-.212-2.2-.359-4.6-.226-3.665-.285-7.042t-.183-5.4a6.969,6.969,0,0,0-1.525-4,3.96,3.96,0,0,0-1.226-1.013,2.334,2.334,0,0,0-1.183-.3q-1.422.087-2.26,2.317a9.636,9.636,0,0,1-1.311,2.485,6.468,6.468,0,0,1-1.56,1.486,6.13,6.13,0,0,1-1.68.779,7.88,7.88,0,0,1-1.671.291,13.747,13.747,0,0,0,1.248-3.5,14.263,14.263,0,0,0,.383-4.129,6,6,0,0,0-1.062-3.2,3.306,3.306,0,0,0-3.115-1.177,4.718,4.718,0,0,0-2.392.79,6.15,6.15,0,0,0-1.763,1.844A9,9,0,0,0,120.29,67.9a8.548,8.548,0,0,0-.282,2.734,7.233,7.233,0,0,0,.957,3.337,7.469,7.469,0,0,0,2.055,2.251,8.354,8.354,0,0,0,1.1.653q-.4,1.016-1.041,2.643-.91,2.313-2.84,6.644-.589,1.287-1.232,2.73t-1.3,2.815q-.654,1.371-1.224,2.5T115.543,96q-.543-2.424-1.007-5.992-.4-3.047-.678-6.375t-.491-6.1q-.208-2.769-.293-4.573t-.093-1.878q-.222-1.708-1.709-1.516t-3.441,2.6a18.012,18.012,0,0,0-3.094,7.017,14.764,14.764,0,0,0-4.3-5.715,7.324,7.324,0,0,0-5.577-1.618,6.654,6.654,0,0,0-3.136,1.467,8.234,8.234,0,0,0-2.5,4.633,18.651,18.651,0,0,0-.363,1.908,6.242,6.242,0,0,0-.293.83q-.3,1.011-1.008,3.438t-2.363,7.251q-1.325,3.768-2.654,6.736t-1.922,4.228a15.219,15.219,0,0,1-1.4-3.235q-.777-2.288-1.613-5.443T75.932,86.75q-.848-3.762-1.579-7.511.527-1.551,1.279-4.673T77,67.815a71.871,71.871,0,0,0,.857-7.225,24.354,24.354,0,0,0-.273-6.239,6.929,6.929,0,0,0-1.448-3.3,2.905,2.905,0,0,0-2.944-.8A5.8,5.8,0,0,0,69.5,52.5a11.958,11.958,0,0,0-1.961,4.426,26.18,26.18,0,0,0-.665,5.775,56.9,56.9,0,0,0,.273,6.278q.309,3.144.8,6.06t.9,4.973c.027.138.057.273.084.411-.329.777-.569,1.4-.655,1.58a33.427,33.427,0,0,1-3.787,6.055,11.389,11.389,0,0,0-1.378,1.665c-.718,1.458.7,1.739,1.789,1.315,1.143-.443,1.966-1.613,2.792-2.472A35.467,35.467,0,0,0,70.111,85.8c.343,1.437.7,2.854,1.084,4.242A78.315,78.315,0,0,0,74,98.531a23.362,23.362,0,0,0,3.106,5.724q1.62,2.048,3.314,1.716a3.079,3.079,0,0,0,1.252-.626,7.5,7.5,0,0,0,1.538-1.9,32.407,32.407,0,0,0,1.987-3.9q1.115-2.5,2.6-6.612.787-2.22,1.364-3.964a44.219,44.219,0,0,0,1.028,5.075,26.922,26.922,0,0,0,1.719,4.765,11.13,11.13,0,0,0,2.157,3.159,2.914,2.914,0,0,0,2.441.967,3.638,3.638,0,0,0,1.982-1.089,12.155,12.155,0,0,0,2.087-2.917,51.55,51.55,0,0,0,2.314-4.95q1.242-3,2.67-7.189,1.491-4.275,2.4-7.8.334,2,.688,4.144t.693,4.181q.339,2.036.646,3.809t.615,3.019a27.5,27.5,0,0,0,1.276,4.369,5.629,5.629,0,0,0,1.1,1.823.948.948,0,0,0,.9.337,3.777,3.777,0,0,1,.614-.156q1.539-.2,3.425-3.129a80.736,80.736,0,0,0,4.829-9.359q1.756-3.931,2.725-6.364t1.436-3.778c.022-.063.042-.121.063-.18a7.242,7.242,0,0,0,1.29.041,9.3,9.3,0,0,0,3.8-1.1,11.4,11.4,0,0,0,3.259-2.567,24.987,24.987,0,0,1,.348,3.208q.135,2.172.378,4.9t.572,5.6a50.008,50.008,0,0,0,.847,5.2,17.45,17.45,0,0,0,1.251,3.828q.73,1.5,1.853,1.426a3.919,3.919,0,0,0,2.309-1.528,30.623,30.623,0,0,0,2.846-3.77q1.509-2.3,3-5.014t2.793-5.226q1.31-2.514,2.272-4.559t1.36-2.892a2.447,2.447,0,0,0,.1-.755A1.406,1.406,0,0,0,154.419,73.28ZM73.76,68.205q-.33,1.63-.631,3.217c-.028-.148-.091-.466-.187-.957a27.714,27.714,0,0,1-.37-4.4q-.069-2.85.1-5.634a42.32,42.32,0,0,1,.552-4.881q.381-2.1,1.032-2.226.579-.114.811,1.063a17.225,17.225,0,0,1,.085,4.146q-.189,2.75-.777,6.377Q74.089,66.575,73.76,68.205Zm28.291,19.382q-.767,2.254-1.54,4.434a39.412,39.412,0,0,1-1.548,3.792q-.772,1.614-1.293,1.68c-.248.032-.5-.173-.76-.619a8.294,8.294,0,0,1-.725-1.8,24.039,24.039,0,0,1-.6-2.605Q95.313,91,95.11,89.435a50.28,50.28,0,0,1-.483-6.324,23.926,23.926,0,0,1,.314-4.274,6.624,6.624,0,0,1,.852-2.455A1.793,1.793,0,0,1,97,75.507a2.552,2.552,0,0,1,1.9.7,9.623,9.623,0,0,1,1.9,2.134,17.363,17.363,0,0,1,1.539,2.823,13.362,13.362,0,0,1,.887,2.757Q102.815,85.334,102.051,87.587ZM123.49,69.86a4.508,4.508,0,0,1,.626-2.63,2.591,2.591,0,0,1,2.21-1.3.6.6,0,0,1,.512.381,2.5,2.5,0,0,1,.161.779,9.246,9.246,0,0,1-.571,4.129,9.736,9.736,0,0,1-1.07,2.131,3.671,3.671,0,0,1-1.332-1.5A5.152,5.152,0,0,1,123.49,69.86Z" fill="#db0038"/>
    </g>
    <path id="Caminho_279" data-name="Caminho 279" d="M128.951,130.771a1.565,1.565,0,0,1,.991,1.392c0-.053-.05.058-.139.335s-.331.89-.724,1.837-.993,2.277-1.793,3.984-1.918,3.938-3.351,6.69a87.31,87.31,0,0,1-5.814,9.787q-2.225,3.039-3.9,3.155a4.144,4.144,0,0,0-.673.129c-.289.073-.606-.066-.951-.421a6.066,6.066,0,0,1-1.063-2.038,29.583,29.583,0,0,1-1.1-4.8q-.255-1.363-.47-3.3t-.451-4.151q-.236-2.217-.478-4.555t-.476-4.515q-1.206,3.738-3.092,8.256-1.811,4.433-3.343,7.584a55.331,55.331,0,0,1-2.817,5.191,13.086,13.086,0,0,1-2.439,3.013,3.929,3.929,0,0,1-2.209,1.048,3.151,3.151,0,0,1-2.571-1.2,12.011,12.011,0,0,1-2.123-3.547,29,29,0,0,1-1.548-5.253,48.486,48.486,0,0,1-.855-6.4q-.164-2.343-.086-5.314a20.669,20.669,0,0,1,.941-5.71q1.131-3.57,2.992-4.839a7.205,7.205,0,0,1,3.478-1.38,7.92,7.92,0,0,1,5.913,2.1,15.963,15.963,0,0,1,4.267,6.443,19.455,19.455,0,0,1,3.79-7.371q2.265-2.472,3.881-2.585t1.746,1.746q.006.081-.021,2.032t.021,4.953q.047,3,.137,6.609t.321,6.922q.27,3.881.7,6.53.441-.68,1.129-1.865t1.482-2.622q.792-1.436,1.581-2.953t1.5-2.866q2.362-4.551,3.492-6.985t1.659-3.568a4.776,4.776,0,0,1,.8-1.355,1.641,1.641,0,0,1,.915-.267A2.581,2.581,0,0,1,128.951,130.771ZM96.271,153.6q.564-.04,1.5-1.729a42.807,42.807,0,0,0,1.915-3.992q.976-2.3,1.947-4.684t1.516-3.883a14.507,14.507,0,0,0-.78-3.032,18.819,18.819,0,0,0-1.479-3.145,10.359,10.359,0,0,0-1.916-2.425,2.762,2.762,0,0,0-2.01-.875,1.94,1.94,0,0,0-1.361.867,7.145,7.145,0,0,0-1.077,2.593,25.87,25.87,0,0,0-.614,4.591,54.114,54.114,0,0,0,.113,6.855q.119,1.7.312,3.308a26.017,26.017,0,0,0,.484,2.85,8.9,8.9,0,0,0,.666,1.984Q95.865,153.629,96.271,153.6Z" fill="#db0038"/>
    <path id="Caminho_280" data-name="Caminho 280" d="M146.771,131.52a1.51,1.51,0,0,1,.882,1.384c0-.053-.056.068-.165.363s-.386.9-.824,1.817-1.124,2.194-2.054,3.834-2.243,3.779-3.936,6.412q-.655.968-1.886,3.025t-2.744,4.112a23.271,23.271,0,0,1-3.227,3.582,4.923,4.923,0,0,1-3.171,1.516,1.923,1.923,0,0,1-1.693-1.187,11.284,11.284,0,0,1-1.03-3.127,32.58,32.58,0,0,1-.534-4.582q-.143-2.633-.121-5.551.026-3.483.214-7.048t.414-6.722q.225-3.158.446-5.546t.228-3.443q-.891-.006-2.553.022a31.97,31.97,0,0,1-3.24-.1,11.311,11.311,0,0,1-2.751-.537q-1.17-.4-1.165-1.354a1.419,1.419,0,0,1,.535-1.144,1.8,1.8,0,0,1,1.178-.427q2.352.017,4.334.194t3.847.19a50.667,50.667,0,0,0,.49-6.021q.062-3.012.323-5.372a10.048,10.048,0,0,1,1.081-3.818,2.816,2.816,0,0,1,2.685-1.446,2.253,2.253,0,0,1,1.938.787,4.445,4.445,0,0,1,.549,2.569q-.021,2.933-.29,6.391t-.292,6.634q3.08-.221,4.743-.452t2.393-.387a2.354,2.354,0,0,0,.853-.277.33.33,0,0,1,.2-.121,1.7,1.7,0,0,1,1.171.495,1.5,1.5,0,0,1,.518,1.131,1.222,1.222,0,0,1-1.143,1.256q-.165.078-2.4.655a42.19,42.19,0,0,1-6.529.939q-.195,4.294-.631,8.706t-.833,8.5q-.393,4.089-.7,7.652t-.329,6.155c0,.324-.005.636-.007.932a4.342,4.342,0,0,0,.075.851q.654-.8,1.842-2.539t2.581-3.951q1.394-2.217,2.829-4.557t2.625-4.4q1.189-2.058,2.051-3.51a20.131,20.131,0,0,0,1.027-1.856,1.419,1.419,0,0,1,1.384-.8A2.69,2.69,0,0,1,146.771,131.52Z" fill="#db0038"/>
    <path id="Caminho_281" data-name="Caminho 281" d="M165.522,134.861q-.36.63-1.562,2.592t-2.844,4.51q-1.643,2.547-3.624,5.4t-3.935,5.18a34.838,34.838,0,0,1-3.658,3.816,4.473,4.473,0,0,1-2.918,1.422q-1.134-.062-1.826-2.21a25.8,25.8,0,0,1-1-5.37q-.311-3.221-.308-6.954t.179-6.969a47.771,47.771,0,0,1,.6-5.728A12.732,12.732,0,0,1,145.708,127a4.135,4.135,0,0,1,1.641-1.816,4.053,4.053,0,0,1,2.175-.449,1.613,1.613,0,0,1,1.678,1.958q-.054.97-.281,2.906t-.483,4.355q-.254,2.421-.605,5.12t-.607,5.16q-.258,2.462-.49,4.476t-.29,3.068c-.023.432-.039.715-.046.849s.042.205.151.211q.484.027,1.7-1.407T153,147.887q1.534-2.106,3.257-4.649T159.4,138.5q1.417-2.193,2.352-3.685t1.023-1.648a1.489,1.489,0,0,1,1.5-.729,1.351,1.351,0,0,1,1.1.588,1.784,1.784,0,0,1,.345,1.115A2.6,2.6,0,0,1,165.522,134.861Zm-17.694-13.224a2.255,2.255,0,0,1-1.9-.875,3.11,3.11,0,0,1-.462-1.932,4.773,4.773,0,0,1,.99-2.5,2.683,2.683,0,0,1,2.459-1.2,2.616,2.616,0,0,1,2.061.884,2.856,2.856,0,0,1,.543,1.937,4.257,4.257,0,0,1-.989,2.5,3.159,3.159,0,0,1-2.379,1.208Z" fill="#db0038"/>
    <path id="Caminho_282" data-name="Caminho 282" d="M187.7,135.289a1.617,1.617,0,0,1,.495,1.439,3.365,3.365,0,0,1-1.243,2.066,14.015,14.015,0,0,1-2.689,1.867,31.891,31.891,0,0,1-3.307,1.554q-1.749.708-3.018,1.139a10.654,10.654,0,0,1,1.264,2.99,9.774,9.774,0,0,1,.164,3.359,8.674,8.674,0,0,1-1.655,4.344,11.307,11.307,0,0,1-3.385,3.013,15.561,15.561,0,0,1-4.425,1.719,16.1,16.1,0,0,1-4.768.377,10.177,10.177,0,0,1-2.932-.768,8.317,8.317,0,0,1-2.437-1.569,6.526,6.526,0,0,1-1.585-2.292,6.073,6.073,0,0,1-.364-3.014,6.465,6.465,0,0,1,1.206-3.21,10.142,10.142,0,0,1,2.585-2.409,18.513,18.513,0,0,1,3.664-1.842q2.082-.791,4.444-1.512a26.915,26.915,0,0,1-3.393-2.53A22.618,22.618,0,0,1,163.1,136.6a17.167,17.167,0,0,1-2.263-3.914,8.555,8.555,0,0,1-.6-4.222,8.78,8.78,0,0,1,.666-2.373,8.911,8.911,0,0,1,1.618-2.513,7.81,7.81,0,0,1,2.694-1.907,7.507,7.507,0,0,1,3.882-.474,3.681,3.681,0,0,1,2.687,1.149,3.2,3.2,0,0,1,.524,2.3,8.282,8.282,0,0,1-.716,2.449,21.192,21.192,0,0,1-1.381,2.58q-.79,1.259-1.61,2.432t-1.391,1.927q1.1,1.1,2.035,1.892t1.909,1.553q.977.759,2.034,1.526t2.339,1.721a47.487,47.487,0,0,0,5.66-2.195,12.7,12.7,0,0,0,4.2-3.006,1.486,1.486,0,0,1,1.367-.585A2.16,2.16,0,0,1,187.7,135.289Zm-26.582,16.583a3.805,3.805,0,0,0,.618,2.554,2.88,2.88,0,0,0,2.217,1.341,7.3,7.3,0,0,0,3.051-.319A9.508,9.508,0,0,0,169.807,154a8.463,8.463,0,0,0,2.124-2.3,6.511,6.511,0,0,0,1-2.785,6.335,6.335,0,0,0-.742-3.667q-1.941.6-3.845,1.252a29.7,29.7,0,0,0-3.41,1.381,11.485,11.485,0,0,0-2.542,1.638,3.46,3.46,0,0,0-1.23,1.945Zm5.436-22.228q.6-.993,1.61-2.432a5.506,5.506,0,0,0,1.1-2.244.454.454,0,0,0-.193-.469,1.082,1.082,0,0,0-.47-.174,2.056,2.056,0,0,0-1.949,1.051,5.721,5.721,0,0,0-.987,2.7,7.142,7.142,0,0,0,.211,2.55Z" fill="#db0038"/>
    <path id="Caminho_283" data-name="Caminho 283" d="M204.233,138.133a1.51,1.51,0,0,1,.659,1.5c.009-.052-.065.059-.219.334s-.518.833-1.091,1.67-1.446,1.995-2.616,3.474-2.795,3.392-4.871,5.736q-.8.855-2.325,2.7t-3.342,3.644a23.18,23.18,0,0,1-3.736,3.046,4.92,4.92,0,0,1-3.366,1.014,1.924,1.924,0,0,1-1.491-1.432,11.258,11.258,0,0,1-.54-3.248,32.581,32.581,0,0,1,.173-4.609q.263-2.625.729-5.505.558-3.438,1.289-6.932t1.437-6.579q.705-3.087,1.289-5.414t.751-3.366q-.879-.143-2.525-.369a32.106,32.106,0,0,1-3.187-.6,11.276,11.276,0,0,1-2.636-.951,1.412,1.412,0,0,1-.241-2.565,1.8,1.8,0,0,1,1.23-.242q2.32.376,4.253.854t3.772.777a50.471,50.471,0,0,0,1.4-5.876q.522-2.967,1.141-5.259a10.048,10.048,0,0,1,1.652-3.608,2.815,2.815,0,0,1,2.874-1.019,2.258,2.258,0,0,1,1.8,1.075,4.448,4.448,0,0,1,.149,2.623q-.47,2.894-1.264,6.271t-1.3,6.511q3.076.252,4.756.279t2.424-.017a2.359,2.359,0,0,0,.885-.144.329.329,0,0,1,.22-.087,1.687,1.687,0,0,1,1.081.668,1.492,1.492,0,0,1,.34,1.2,1.223,1.223,0,0,1-1.323,1.067q-.174.053-2.466.281a42.269,42.269,0,0,1-6.6-.07q-.849,4.213-1.955,8.506t-2.122,8.275q-1.016,3.981-1.866,7.454t-1.267,6.032c-.051.32-.1.628-.149.92a4.388,4.388,0,0,0-.056.853q.77-.694,2.209-2.227t3.155-3.511q1.715-1.977,3.492-4.07t3.267-3.944q1.488-1.851,2.563-3.155a20.088,20.088,0,0,0,1.3-1.677,1.417,1.417,0,0,1,1.489-.579A2.715,2.715,0,0,1,204.233,138.133Z" fill="#db0038"/>
    <path id="Caminho_284" data-name="Caminho 284" d="M242.612,147.164a1.569,1.569,0,0,1,.524,1.627c.013-.052-.066.04-.234.277s-.584.749-1.244,1.533-1.633,1.872-2.911,3.258-3.016,3.177-5.211,5.369a87.193,87.193,0,0,1-8.495,7.578q-3.037,2.228-4.666,1.834a4.107,4.107,0,0,0-.68-.081c-.3-.017-.558-.245-.78-.687a6.06,6.06,0,0,1-.4-2.264,29.567,29.567,0,0,1,.4-4.9q.168-1.375.546-3.285t.821-4.094q.445-2.184.918-4.488t.908-4.448q-2.277,3.2-5.438,6.94-3.063,3.68-5.474,6.223a55.565,55.565,0,0,1-4.251,4.1,13.124,13.124,0,0,1-3.235,2.137,3.931,3.931,0,0,1-2.421.333,3.152,3.152,0,0,1-2.09-1.921,12.048,12.048,0,0,1-.954-4.022,29.041,29.041,0,0,1,.107-5.475,48.718,48.718,0,0,1,1.115-6.357q.551-2.283,1.519-5.093a20.7,20.7,0,0,1,2.62-5.16q2.154-3.063,4.311-3.712a7.209,7.209,0,0,1,3.732-.267,7.921,7.921,0,0,1,5,3.79,15.962,15.962,0,0,1,2.125,7.43,19.433,19.433,0,0,1,5.837-5.885q2.9-1.676,4.479-1.3t1.139,2.192q-.019.079-.633,1.931t-1.473,4.728q-.861,2.877-1.863,6.344t-1.781,6.7q-.912,3.781-1.3,6.438.624-.516,1.639-1.439t2.2-2.053q1.188-1.13,2.4-2.339t2.3-2.279q3.624-3.627,5.435-5.607t2.658-2.9a4.821,4.821,0,0,1,1.17-1.052,1.648,1.648,0,0,1,.954.022A2.628,2.628,0,0,1,242.612,147.164Zm-38.044,11.915q.551.132,1.955-1.2a42.614,42.614,0,0,0,3.029-3.228q1.624-1.9,3.269-3.88t2.615-3.245a14.4,14.4,0,0,0,.171-3.126,18.857,18.857,0,0,0-.461-3.445,10.381,10.381,0,0,0-1.1-2.889,2.761,2.761,0,0,0-1.653-1.44,1.938,1.938,0,0,0-1.558.416,7.153,7.153,0,0,0-1.81,2.147,25.9,25.9,0,0,0-1.969,4.193,53.983,53.983,0,0,0-1.959,6.57q-.4,1.655-.7,3.248a26.065,26.065,0,0,0-.4,2.863,8.873,8.873,0,0,0,.037,2.092C204.128,158.71,204.3,159.015,204.568,159.079Z" fill="#db0038"/>
    <path id="Caminho_285" data-name="Caminho 285" d="M.934,150.532" fill="#db0038"/>
    <g id="Grupo_143" data-name="Grupo 143">
      <path id="Caminho_286" data-name="Caminho 286" d="M93.609,129.618a2.287,2.287,0,0,0-1.655-1.866,3.012,3.012,0,0,0-.916.069,2.061,2.061,0,0,0-1.761,1.631q-2,7.357-4.083,12.818a59.168,59.168,0,0,1-4.482,9.422,35.516,35.516,0,0,1-5.044,6.639,28.506,28.506,0,0,1-5.551,4.426q6.5-8.036,4.949-15.713a16.7,16.7,0,0,0-10.943-13.307,25.279,25.279,0,0,0-8.677-1.545,43.845,43.845,0,0,0-9.118.861,37.548,37.548,0,0,0,4-6.619,41.1,41.1,0,0,0,3.894-14.9,26.851,26.851,0,0,0-.441-7.055q-1.265-6.248-5.1-9.131t-9.416-1.753a15.894,15.894,0,0,0-7.772,3.782,29.3,29.3,0,0,0-5.022,5.9c-.047-.61-.111-1.215-.194-1.82s-.185-1.2-.306-1.8q-.654-3.234-2.552-2.851a4.034,4.034,0,0,0-1.829,1.009,8.435,8.435,0,0,0-1.67,2.077,11.051,11.051,0,0,0-1.133,2.724,7.582,7.582,0,0,0-.217,2.944q.646,5.577,1.292,10.58a115.979,115.979,0,0,0-6.592,15.441c-2.46,7.005-4.715,15.327-.923,22.315A11.868,11.868,0,0,0,28.3,158.51a10.2,10.2,0,0,0,5.1-9.628c-.123-2.262-.159-4.586-.369-6.867,1.456-.3,8.2-2.935,10.36-3.372a43.025,43.025,0,0,1,7.266-.833,20.865,20.865,0,0,1,6.857.877,12.654,12.654,0,0,1,5.446,3.369,13.34,13.34,0,0,1,3.163,6.734c1.78,8.786-8.787,14.526-15.524,17.177-8.138,3.2-17.6,4.977-26.334,4.1-4.564-.46-9.146-.875-13.648-1.787-1.669-.338-3.311-.788-4.955-1.227-1.352-.361-3.068-1.187-4.469-.753a1.52,1.52,0,0,0-.712.418c-3.62,4.176,14.171,7.154,16.621,7.485,19.789,2.674,47.283,2.818,62.107-12.994a47.843,47.843,0,0,0,8.037-12.228,105.444,105.444,0,0,0,6.429-18.448A2.387,2.387,0,0,0,93.609,129.618Zm-72.474,26.15c-6.88.026-6.511-9.571-5.825-14.086a85.679,85.679,0,0,1,5.434-18.987q.62,4.428,1.242,8.329,1.218,7.657,2.36,13.754l.137-.028a32.645,32.645,0,0,1,.7,5.934C25.146,153.332,24.145,155.757,21.135,155.768Zm24-41.524a36.407,36.407,0,0,1-1.9,8.691,32.164,32.164,0,0,1-4.045,7.847,21.455,21.455,0,0,1-6.071,5.876,3.7,3.7,0,0,1-1.07.449Q31,131.394,29.929,124.932T27.7,111.037q.222-.624.831-2.492a19.82,19.82,0,0,1,1.822-3.912,19.333,19.333,0,0,1,2.949-3.791A8.22,8.22,0,0,1,37.6,98.576l.557-.113a4.569,4.569,0,0,1,2.636.4,4.97,4.97,0,0,1,1.9,1.648,11.129,11.129,0,0,1,1.257,2.476,19.573,19.573,0,0,1,.81,2.856A28.68,28.68,0,0,1,45.132,114.244Z" fill="#db0038"/>
    </g>
    <g id="Grupo_144" data-name="Grupo 144">
      <path id="Caminho_287" data-name="Caminho 287" d="M154.419,73.28a2.365,2.365,0,0,0-.683-.108,1.374,1.374,0,0,0-1.3.831q-.2.39-.9,1.783t-1.7,3.41q-1,2.016-2.215,4.268t-2.284,4.347q-1.074,2.094-1.988,3.69t-1.322,2.3a25.048,25.048,0,0,1-.7-4.05q-.212-2.2-.359-4.6-.226-3.665-.285-7.042t-.183-5.4a6.969,6.969,0,0,0-1.525-4,3.96,3.96,0,0,0-1.226-1.013,2.334,2.334,0,0,0-1.183-.3q-1.422.087-2.26,2.317a9.636,9.636,0,0,1-1.311,2.485,6.468,6.468,0,0,1-1.56,1.486,6.13,6.13,0,0,1-1.68.779,7.88,7.88,0,0,1-1.671.291,13.747,13.747,0,0,0,1.248-3.5,14.263,14.263,0,0,0,.383-4.129,6,6,0,0,0-1.062-3.2,3.306,3.306,0,0,0-3.115-1.177,4.718,4.718,0,0,0-2.392.79,6.15,6.15,0,0,0-1.763,1.844A9,9,0,0,0,120.29,67.9a8.548,8.548,0,0,0-.282,2.734,7.233,7.233,0,0,0,.957,3.337,7.469,7.469,0,0,0,2.055,2.251,8.354,8.354,0,0,0,1.1.653q-.4,1.016-1.041,2.643-.91,2.313-2.84,6.644-.589,1.287-1.232,2.73t-1.3,2.815q-.654,1.371-1.224,2.5T115.543,96q-.543-2.424-1.007-5.992-.4-3.047-.678-6.375t-.491-6.1q-.208-2.769-.293-4.573t-.093-1.878q-.222-1.708-1.709-1.516t-3.441,2.6a18.012,18.012,0,0,0-3.094,7.017,14.764,14.764,0,0,0-4.3-5.715,7.324,7.324,0,0,0-5.577-1.618,6.654,6.654,0,0,0-3.136,1.467,8.234,8.234,0,0,0-2.5,4.633,18.651,18.651,0,0,0-.363,1.908,6.242,6.242,0,0,0-.293.83q-.3,1.011-1.008,3.438t-2.363,7.251q-1.325,3.768-2.654,6.736t-1.922,4.228a15.219,15.219,0,0,1-1.4-3.235q-.777-2.288-1.613-5.443T75.932,86.75q-.848-3.762-1.579-7.511.527-1.551,1.279-4.673T77,67.815a71.871,71.871,0,0,0,.857-7.225,24.354,24.354,0,0,0-.273-6.239,6.929,6.929,0,0,0-1.448-3.3,2.905,2.905,0,0,0-2.944-.8A5.8,5.8,0,0,0,69.5,52.5a11.958,11.958,0,0,0-1.961,4.426,26.18,26.18,0,0,0-.665,5.775,56.9,56.9,0,0,0,.273,6.278q.309,3.144.8,6.06t.9,4.973c.027.138.057.273.084.411-.329.777-.569,1.4-.655,1.58a33.427,33.427,0,0,1-3.787,6.055,11.389,11.389,0,0,0-1.378,1.665c-.718,1.458.7,1.739,1.789,1.315,1.143-.443,1.966-1.613,2.792-2.472A35.467,35.467,0,0,0,70.111,85.8c.343,1.437.7,2.854,1.084,4.242A78.315,78.315,0,0,0,74,98.531a23.362,23.362,0,0,0,3.106,5.724q1.62,2.048,3.314,1.716a3.079,3.079,0,0,0,1.252-.626,7.5,7.5,0,0,0,1.538-1.9,32.407,32.407,0,0,0,1.987-3.9q1.115-2.5,2.6-6.612.787-2.22,1.364-3.964a44.219,44.219,0,0,0,1.028,5.075,26.922,26.922,0,0,0,1.719,4.765,11.13,11.13,0,0,0,2.157,3.159,2.914,2.914,0,0,0,2.441.967,3.638,3.638,0,0,0,1.982-1.089,12.155,12.155,0,0,0,2.087-2.917,51.55,51.55,0,0,0,2.314-4.95q1.242-3,2.67-7.189,1.491-4.275,2.4-7.8.334,2,.688,4.144t.693,4.181q.339,2.036.646,3.809t.615,3.019a27.5,27.5,0,0,0,1.276,4.369,5.629,5.629,0,0,0,1.1,1.823.948.948,0,0,0,.9.337,3.777,3.777,0,0,1,.614-.156q1.539-.2,3.425-3.129a80.736,80.736,0,0,0,4.829-9.359q1.756-3.931,2.725-6.364t1.436-3.778c.022-.063.042-.121.063-.18a7.242,7.242,0,0,0,1.29.041,9.3,9.3,0,0,0,3.8-1.1,11.4,11.4,0,0,0,3.259-2.567,24.987,24.987,0,0,1,.348,3.208q.135,2.172.378,4.9t.572,5.6a50.008,50.008,0,0,0,.847,5.2,17.45,17.45,0,0,0,1.251,3.828q.73,1.5,1.853,1.426a3.919,3.919,0,0,0,2.309-1.528,30.623,30.623,0,0,0,2.846-3.77q1.509-2.3,3-5.014t2.793-5.226q1.31-2.514,2.272-4.559t1.36-2.892a2.447,2.447,0,0,0,.1-.755A1.406,1.406,0,0,0,154.419,73.28ZM73.76,68.205q-.33,1.63-.631,3.217c-.028-.148-.091-.466-.187-.957a27.714,27.714,0,0,1-.37-4.4q-.069-2.85.1-5.634a42.32,42.32,0,0,1,.552-4.881q.381-2.1,1.032-2.226.579-.114.811,1.063a17.225,17.225,0,0,1,.085,4.146q-.189,2.75-.777,6.377Q74.089,66.575,73.76,68.205Zm28.291,19.382q-.767,2.254-1.54,4.434a39.412,39.412,0,0,1-1.548,3.792q-.772,1.614-1.293,1.68c-.248.032-.5-.173-.76-.619a8.294,8.294,0,0,1-.725-1.8,24.039,24.039,0,0,1-.6-2.605Q95.313,91,95.11,89.435a50.28,50.28,0,0,1-.483-6.324,23.926,23.926,0,0,1,.314-4.274,6.624,6.624,0,0,1,.852-2.455A1.793,1.793,0,0,1,97,75.507a2.552,2.552,0,0,1,1.9.7,9.623,9.623,0,0,1,1.9,2.134,17.363,17.363,0,0,1,1.539,2.823,13.362,13.362,0,0,1,.887,2.757Q102.815,85.334,102.051,87.587ZM123.49,69.86a4.508,4.508,0,0,1,.626-2.63,2.591,2.591,0,0,1,2.21-1.3.6.6,0,0,1,.512.381,2.5,2.5,0,0,1,.161.779,9.246,9.246,0,0,1-.571,4.129,9.736,9.736,0,0,1-1.07,2.131,3.671,3.671,0,0,1-1.332-1.5A5.152,5.152,0,0,1,123.49,69.86Z" fill="#db0038"/>
    </g>
    <g id="Grupo_162" data-name="Grupo 162">
      <g id="Grupo_159" data-name="Grupo 159">
        <path id="Caminho_288" data-name="Caminho 288" d="M215.213,91.591a260.055,260.055,0,0,1,27.983,7.2,44.926,44.926,0,1,0-69-12.038A252.03,252.03,0,0,1,215.213,91.591Z" fill="#ffdf54"/>
        <g id="Grupo_158" data-name="Grupo 158">
          <g id="Grupo_145" data-name="Grupo 145">
            <path id="Caminho_289" data-name="Caminho 289" d="M223.247,16.91a1.027,1.027,0,0,1-.19-.018,1.006,1.006,0,0,1-.8-1.177L223.4,9.722a1.006,1.006,0,0,1,1.977.377l-1.145,5.993A1.007,1.007,0,0,1,223.247,16.91Z" fill="#001b2a"/>
            <path id="Caminho_290" data-name="Caminho 290" d="M249.871,29.768a1.007,1.007,0,0,1-.744-1.684l8.958-9.836a1.006,1.006,0,1,1,1.487,1.355l-8.957,9.836A1,1,0,0,1,249.871,29.768Z" fill="#001b2a"/>
            <path id="Caminho_291" data-name="Caminho 291" d="M273.38,73.414a1.053,1.053,0,0,1-.166-.014l-8.937-1.485a1.006,1.006,0,1,1,.33-1.985l8.937,1.485a1.006,1.006,0,0,1-.164,2Z" fill="#001b2a"/>
            <path id="Caminho_292" data-name="Caminho 292" d="M259.611,97.122a1,1,0,0,1-.6-.2l-3.873-2.867a1.006,1.006,0,1,1,1.2-1.617l3.873,2.867a1.007,1.007,0,0,1-.6,1.815Z" fill="#001b2a"/>
            <path id="Caminho_293" data-name="Caminho 293" d="M260.359,48.526a1.006,1.006,0,0,1-.254-1.98l6.229-1.628a1.006,1.006,0,1,1,.509,1.947l-6.229,1.628A1.026,1.026,0,0,1,260.359,48.526Z" fill="#001b2a"/>
            <path id="Caminho_294" data-name="Caminho 294" d="M279.995,74.553a1.023,1.023,0,0,1-.2-.02l-2.4-.479a1.006,1.006,0,0,1,.394-1.973l2.4.479a1.006,1.006,0,0,1-.2,1.993Z" fill="#001b2a"/>
            <path id="Caminho_295" data-name="Caminho 295" d="M193.92,18.391A1.006,1.006,0,0,1,193,17.8l-3.746-8.249a1.006,1.006,0,0,1,1.833-.832l3.745,8.25a1.006,1.006,0,0,1-.915,1.422Z" fill="#001b2a"/>
            <path id="Caminho_296" data-name="Caminho 296" d="M188.373,6.271a1,1,0,0,1-.929-.62l-.938-2.258a1.006,1.006,0,0,1,1.858-.772l.938,2.258a1.006,1.006,0,0,1-.543,1.315A.992.992,0,0,1,188.373,6.271Z" fill="#001b2a"/>
            <path id="Caminho_297" data-name="Caminho 297" d="M176.119,33.464a1,1,0,0,1-.736-.32l-4.39-4.709a1.006,1.006,0,1,1,1.471-1.372l4.391,4.709a1.005,1.005,0,0,1-.736,1.692Z" fill="#001b2a"/>
            <path id="Caminho_298" data-name="Caminho 298" d="M164.075,55.147a1.043,1.043,0,0,1-.166-.014l-13.124-2.18a1.007,1.007,0,0,1,.331-1.986l13.123,2.181a1.006,1.006,0,0,1-.164,2Z" fill="#001b2a"/>
            <path id="Caminho_299" data-name="Caminho 299" d="M160.868,81.091a1.006,1.006,0,0,1-.37-1.942l5.989-2.363a1.006,1.006,0,1,1,.739,1.871l-5.989,2.364A1,1,0,0,1,160.868,81.091Z" fill="#001b2a"/>
          </g>
          <g id="Grupo_157" data-name="Grupo 157">
            <g id="Grupo_146" data-name="Grupo 146">
              <path id="Caminho_300" data-name="Caminho 300" d="M222.727,14.832a1.007,1.007,0,0,1-.989-1.195l1.144-5.993a1.006,1.006,0,1,1,1.977.377l-1.144,5.993A1.008,1.008,0,0,1,222.727,14.832Z" fill="#ffdf54"/>
            </g>
            <g id="Grupo_147" data-name="Grupo 147">
              <path id="Caminho_301" data-name="Caminho 301" d="M249.351,27.69a1.007,1.007,0,0,1-.743-1.684l8.957-9.836a1.006,1.006,0,1,1,1.488,1.355L250.1,27.361A1,1,0,0,1,249.351,27.69Z" fill="#ffdf54"/>
            </g>
            <g id="Grupo_148" data-name="Grupo 148">
              <path id="Caminho_302" data-name="Caminho 302" d="M272.861,71.336a1.042,1.042,0,0,1-.166-.014l-8.938-1.485a1.006,1.006,0,0,1,.33-1.985l8.938,1.485a1.006,1.006,0,0,1-.164,2Z" fill="#ffdf54"/>
            </g>
            <g id="Grupo_149" data-name="Grupo 149">
              <path id="Caminho_303" data-name="Caminho 303" d="M259.091,95.044a1,1,0,0,1-.6-.2l-3.873-2.867a1.006,1.006,0,0,1,1.2-1.617l3.873,2.867a1.006,1.006,0,0,1-.6,1.815Z" fill="#ffdf54"/>
            </g>
            <g id="Grupo_150" data-name="Grupo 150">
              <path id="Caminho_304" data-name="Caminho 304" d="M259.839,46.448a1.007,1.007,0,0,1-.254-1.98l6.23-1.628a1.006,1.006,0,0,1,.509,1.947l-6.23,1.628A1.02,1.02,0,0,1,259.839,46.448Z" fill="#ffdf54"/>
            </g>
            <g id="Grupo_151" data-name="Grupo 151">
              <path id="Caminho_305" data-name="Caminho 305" d="M279.475,72.475a1.039,1.039,0,0,1-.2-.02l-2.4-.479A1.006,1.006,0,1,1,277.274,70l2.4.479a1.006,1.006,0,0,1-.2,1.993Z" fill="#ffdf54"/>
            </g>
            <g id="Grupo_152" data-name="Grupo 152">
              <path id="Caminho_306" data-name="Caminho 306" d="M193.4,16.313a1.006,1.006,0,0,1-.917-.591l-3.745-8.249a1.006,1.006,0,0,1,1.832-.832l3.746,8.25a1.006,1.006,0,0,1-.916,1.422Z" fill="#ffdf54"/>
            </g>
            <g id="Grupo_153" data-name="Grupo 153">
              <path id="Caminho_307" data-name="Caminho 307" d="M187.854,4.193a1.006,1.006,0,0,1-.93-.62l-.938-2.258a1.006,1.006,0,0,1,1.858-.772l.938,2.258a1,1,0,0,1-.543,1.315A.991.991,0,0,1,187.854,4.193Z" fill="#ffdf54"/>
            </g>
            <g id="Grupo_154" data-name="Grupo 154">
              <path id="Caminho_308" data-name="Caminho 308" d="M175.6,31.386a1,1,0,0,1-.736-.32l-4.391-4.709a1.006,1.006,0,1,1,1.472-1.372l4.391,4.709a1.006,1.006,0,0,1-.736,1.692Z" fill="#ffdf54"/>
            </g>
            <g id="Grupo_155" data-name="Grupo 155">
              <path id="Caminho_309" data-name="Caminho 309" d="M163.556,53.069a1.055,1.055,0,0,1-.167-.014l-13.123-2.18a1.007,1.007,0,0,1,.33-1.986L163.72,51.07a1.006,1.006,0,0,1-.164,2Z" fill="#ffdf54"/>
            </g>
            <g id="Grupo_156" data-name="Grupo 156">
              <path id="Caminho_310" data-name="Caminho 310" d="M160.348,79.013a1.006,1.006,0,0,1-.37-1.942l5.99-2.363a1.006,1.006,0,0,1,.739,1.871l-5.99,2.364A1,1,0,0,1,160.348,79.013Z" fill="#ffdf54"/>
            </g>
          </g>
        </g>
      </g>
      <g id="Grupo_161" data-name="Grupo 161">
        <path id="Caminho_311" data-name="Caminho 311" d="M204.84,91.537c1.832.937,4.05.394,5.99-.292A47.545,47.545,0,0,0,222.4,85.26c1.587-1.123,2.9-2.816,4.566-3.754a7.186,7.186,0,0,0,3.55-3.579,13.726,13.726,0,0,0,1.469-4.993,9.8,9.8,0,0,0-4.8-8.7,11.976,11.976,0,0,0-9.423-1.047c-.22.064-.437.134-.653.21a16.756,16.756,0,0,0-2.119.929,22.241,22.241,0,0,0-4.778,3.326,40.128,40.128,0,0,1-5.138-4.852,7.008,7.008,0,0,0-4.762-1.737c-3.845-.188-8.119,2.328-9.021,6.206-.659,2.828.137,5.808,1.372,8.437a41.79,41.79,0,0,0,5.35,8.421c1.111,1.37,2.385,2.583,3.525,3.92C202.6,89.291,203.289,90.743,204.84,91.537Z" fill="#fff"/>
        <g id="Grupo_160" data-name="Grupo 160">
          <path id="Caminho_312" data-name="Caminho 312" d="M245.576,61.68c-4.425-3.733-8.51-7.947-12.847-11.8-4.144-3.682-8.3-7.354-12.219-11.282-1.288-1.292-2.579-3.127-4.33-3.827-2.061-.823-4.208.325-6.009,1.292-5.067,2.72-10.021,5.7-15.063,8.472-5.17,2.846-10.3,5.785-15.55,8.479-1.358.7-3.119,1.618-3.423,3.282-.3,1.634,1.031,2.97,2.386,3.641a9.157,9.157,0,0,0,2.528.652c1.488.261,2.561.192,2.7,2.028.211,2.778-.548,5.918-.78,8.687-.585,6.991-1.061,13.991-1.544,20.99a1.512,1.512,0,0,0,.044.472c-2.548-.034-5.091.01-7.622.159-1.931.113-1.944,3.133,0,3.018,11.793-.693,23.854.763,35.446,2.851a264.327,264.327,0,0,1,33.814,8.617c1.854.595,2.648-2.319.8-2.911q-4.967-1.593-9.984-3.019C235.5,91.3,237.1,80.992,239.462,70.962c2.239.223,4.434.7,6.669.884a3.436,3.436,0,0,0,3.777-1.967C251.259,66.451,247.8,63.555,245.576,61.68Zm.313,7.083c-2.478-.018-5.1-.784-7.6-.912a1.525,1.525,0,0,0-1.456,1.108c-2.523,10.4-4.175,21.125-5.811,31.7-7.21-1.971-14.5-3.652-21.864-4.946a183.8,183.8,0,0,0-24.848-2.879,1.6,1.6,0,0,0,.137-.543c.667-9.648,1.8-19.318,2.3-28.966.167-3.212-1.162-4.961-4.3-5.554a14.326,14.326,0,0,1-2.012-.364c-1.165-.4-1.361-.481-.418-1.219,1.74-1.361,4.265-2.25,6.205-3.317l13.45-7.4c4.271-2.351,8.45-5.077,12.822-7.218,1.315-.644,2.128-1.042,3.382-.084a19.316,19.316,0,0,1,1.853,1.908c1.725,1.759,3.508,3.462,5.314,5.138,3.388,3.142,6.871,6.18,10.315,9.26,3.976,3.555,7.824,7.235,11.8,10.778a5.658,5.658,0,0,1,1.62,1.974C247.332,68.517,247.188,68.772,245.889,68.763Z" fill="#001b2a"/>
          <path id="Caminho_313" data-name="Caminho 313" d="M227.1,62.656c-4.915-2.9-10.6-1.509-14.905,1.786-.476.365-.994.776-1.522,1.225a26.008,26.008,0,0,0-4.019-3.87c-3.447-2.663-8.045-4.1-11.9-1.378a12.523,12.523,0,0,0-4.581,14.028c1.943,6.2,6.624,11.7,11.312,16.042,2.118,1.963,4.176,4.541,7.295,3.618a41.943,41.943,0,0,0,10.705-5.5c4.65-3.155,10.726-6.99,12.88-12.46C234.337,71.135,231.6,65.31,227.1,62.656Zm-17.513,8.532c.231-.281.471-.557.713-.831a7.182,7.182,0,0,1,1.182,3.888c-.092,1.5-1.669,2.05-2.5.779C208.1,73.684,208.659,72.32,209.585,71.188Zm19.178,5.391C226.288,80.5,221.721,83.45,217.958,86A56.667,56.667,0,0,1,212.55,89.2c-1.009.514-2.034.99-3.082,1.418-1.749.714-2.892.376-4.354-.912a50.535,50.535,0,0,1-7.72-8.219c-2.258-3.128-4.855-7.025-4.87-11.021-.012-3.375,2.411-7.819,6.006-8.468,3.084-.557,6.1,1.78,8.129,3.818.538.541,1.167,1.211,1.79,1.957-2.529,2.719-4.341,6.151-1.817,9.4a4.752,4.752,0,0,0,5.007,1.515c2.3-.78,3.107-3.438,2.756-5.631a13.668,13.668,0,0,0-1.935-4.918c.314-.288.632-.569.958-.84,3.332-2.774,7.744-4.38,11.844-2.209C229.4,67.287,231.322,72.522,228.763,76.579Z" fill="#001b2a"/>
        </g>
      </g>
    </g>
  </g>
</svg>
